<svg width="21" height="21" viewBox="0 0 21 21" fill="none" xmlns="http://www.w3.org/2000/svg">
<g clip-path="url(#clip0_1_240)">
<g clip-path="url(#clip1_1_240)">
<g clip-path="url(#clip2_1_240)">
<path d="M13.6696 12.801L19.8866 19.0216" stroke="black" stroke-width="1.19142" stroke-miterlimit="8" stroke-linecap="square"/>
<path d="M8.76438 14.5706C12.4497 14.5706 15.4373 11.5813 15.4373 7.89383C15.4373 4.20632 12.4497 1.21701 8.76438 1.21701C5.07901 1.21701 2.09143 4.20632 2.09143 7.89383C2.09143 11.5813 5.07901 14.5706 8.76438 14.5706Z" stroke="black" stroke-width="1.19142" stroke-miterlimit="8" stroke-linecap="square"/>
<path d="M13.5504 12.9067L19.7673 19.1217" stroke="black" stroke-width="1.19142" stroke-miterlimit="8" stroke-linecap="square"/>
<path d="M8.6472 14.6707C12.3325 14.6707 15.3201 11.6814 15.3201 7.99392C15.3201 4.30642 12.3325 1.31711 8.6472 1.31711C4.96182 1.31711 1.97424 4.30642 1.97424 7.99392C1.97424 11.6814 4.96182 14.6707 8.6472 14.6707Z" stroke="black" stroke-width="1.19142" stroke-miterlimit="8" stroke-linecap="square"/>
</g>
</g>
</g>
<defs>
<clipPath id="clip0_1_240">
<rect width="20" height="20" fill="white" transform="translate(0.974243 0.21701)"/>
</clipPath>
<clipPath id="clip1_1_240">
<rect width="20" height="20" fill="white" transform="translate(0.974243 0.21701)"/>
</clipPath>
<clipPath id="clip2_1_240">
<rect width="20" height="20" fill="white" transform="translate(0.974243 0.21701)"/>
</clipPath>
</defs>
</svg>
