<svg width="21" height="21" viewBox="0 0 21 21" fill="none" xmlns="http://www.w3.org/2000/svg">
<g clip-path="url(#clip0_1_251)">
<g clip-path="url(#clip1_1_251)">
<path d="M14.413 5.84201C14.2599 7.90725 12.6942 9.59201 10.9755 9.59201C9.25674 9.59201 7.68839 7.90764 7.538 5.84201C7.38174 3.69357 8.90518 2.09201 10.9755 2.09201C13.0458 2.09201 14.5692 3.73264 14.413 5.84201Z" stroke="black" stroke-width="1.25" stroke-linecap="round" stroke-linejoin="round"/>
<path d="M10.9743 12.092C7.5759 12.092 4.12668 13.967 3.4884 17.5061C3.41145 17.9326 3.65286 18.342 4.09934 18.342H17.8493C18.2962 18.342 18.5376 17.9326 18.4607 17.5061C17.822 13.967 14.3728 12.092 10.9743 12.092Z" stroke="black" stroke-width="1.25" stroke-miterlimit="10"/>
</g>
</g>
<defs>
<clipPath id="clip0_1_251">
<rect width="20" height="20" fill="white" transform="translate(0.974243 0.21701)"/>
</clipPath>
<clipPath id="clip1_1_251">
<rect width="20" height="20" fill="white" transform="translate(0.974243 0.21701)"/>
</clipPath>
</defs>
</svg>
