<svg width="51" height="51" viewBox="0 0 51 51" fill="none" xmlns="http://www.w3.org/2000/svg">
<g clip-path="url(#clip0_1_218)">
<g clip-path="url(#clip1_1_218)">
<g clip-path="url(#clip2_1_218)">
<path d="M25.9694 49.7597C39.2504 49.7597 50.0169 38.9932 50.0169 25.7122C50.0169 12.431 39.2504 1.66455 25.9694 1.66455C12.6882 1.66455 1.92175 12.431 1.92175 25.7122C1.92175 38.9932 12.6882 49.7597 25.9694 49.7597Z" fill="#FFF200"/>
<path d="M25.9692 50.717C12.1917 50.717 0.974213 39.4996 0.974213 25.712C0.974213 11.9244 12.1917 0.71701 25.9692 0.71701C39.7466 0.71701 50.9641 11.9345 50.9641 25.712C50.9641 39.4894 39.7566 50.717 25.9692 50.717ZM25.9692 2.62186C13.2399 2.62186 2.87906 12.9827 2.87906 25.712C2.87906 38.4412 13.2399 48.8121 25.9692 48.8121C38.6984 48.8121 49.0592 38.4513 49.0592 25.722C49.0592 12.9928 38.7085 2.62186 25.9692 2.62186Z" fill="black"/>
<path d="M27.047 25.077C27.0066 25.0266 26.9562 24.9863 26.916 24.9561C26.7245 24.815 26.4724 24.7444 26.2104 24.7847C25.6561 24.8654 25.1824 24.9461 24.6987 25.0166C24.6987 24.8755 24.7088 24.7243 24.7088 24.5832C24.7088 24.3816 24.7188 24.1901 24.7188 23.9986C24.7188 23.9482 24.7188 23.908 24.7188 23.8576C24.7188 23.8072 24.7188 23.7669 24.7188 23.7165C24.7692 20.7231 24.7592 18.7074 24.7188 17.3266C24.7188 17.2862 24.7188 17.2459 24.7188 17.1955C24.7592 16.8327 24.6987 16.5808 24.6785 16.3086C24.6785 16.2482 24.6584 15.9962 24.6483 15.9358C24.5374 14.4239 24.3761 14.3735 24.225 14.1821C23.7916 13.6378 23.0054 13.2851 22.1287 13.2447C20.9393 13.1843 19.0042 13.6479 16.535 16.1877C15.4465 17.3065 14.61 18.7678 13.975 20.4005C13.9448 20.4711 13.9246 20.5316 13.8944 20.6022C13.6122 21.5697 13.1889 22.8396 12.9268 23.8172C12.9168 23.8576 12.9067 23.8878 12.8966 23.9281C12.7757 24.4623 12.6648 25.0065 12.5741 25.5407C12.4028 25.5407 12.2415 25.5305 12.0702 25.5305C11.9996 25.5305 11.9291 25.5407 11.8585 25.5205C10.4576 25.2282 8.94579 25.188 8.98611 26.9215C9.01634 26.9617 9.05665 27.002 9.08689 27.0424C9.19776 27.1532 9.33885 27.2439 9.50011 27.2843C9.56058 27.2943 9.63114 27.3044 9.69161 27.3144C10.004 27.2843 10.2157 27.2843 10.4878 27.3649C10.5584 27.3649 10.6188 27.375 10.6894 27.375C11.2034 27.4053 11.7275 27.4153 12.2717 27.4354C12.2617 27.5362 12.2415 27.6472 12.2314 27.7478C12.2213 27.7882 12.2213 28.0905 12.2113 28.1409C12.2213 30.7312 11.6569 32.4949 11.8283 34.9742C11.8283 35.0347 11.8686 35.3774 11.8686 35.4278C11.8686 35.5689 11.8787 35.6596 11.8787 35.6999C11.8988 36.2139 12.3221 36.607 12.8261 36.607C12.8361 36.607 13.199 36.5365 13.209 36.5263C13.7029 36.1332 13.8642 35.71 13.844 35.1859C13.8238 34.6617 13.6525 31.3258 14.1665 27.4758C14.2471 27.4758 14.3177 27.4758 14.3882 27.4758C15.5977 27.4758 15.9807 27.4959 17.2304 27.4455C17.2707 27.4455 17.3111 27.4455 17.3412 27.4455C18.6011 27.5866 20.012 27.5059 20.8587 27.3649C21.1107 27.3447 21.1914 27.3447 21.2316 27.3447C21.8061 27.3144 22.3 27.2742 22.7535 27.2238C22.7535 27.4053 22.7434 27.5866 22.7434 27.768C22.7434 27.8084 22.7434 27.8486 22.7434 27.8889C22.7635 28.1712 22.7635 28.5239 22.7131 28.7154C22.7131 28.7558 22.7131 28.7961 22.7131 28.8363C22.7131 28.8766 22.7131 28.917 22.7131 28.9573C22.7131 28.9976 22.7131 29.038 22.7131 29.0782C22.7131 29.1185 22.7131 29.1589 22.7131 29.1992C22.7131 29.31 22.7031 29.4209 22.7031 29.5317C22.7031 29.5722 22.7031 29.6023 22.7031 29.6427C22.7233 30.2776 22.6527 30.9327 22.6224 31.5677C22.6224 31.608 22.6224 31.6482 22.6124 31.6785C22.6124 31.7592 22.6023 31.8297 22.6023 31.9104C22.6023 31.9607 22.6023 32.0111 22.5922 32.0515C22.572 32.5755 22.562 33.2407 22.5318 33.7649C22.5116 34.2889 23.066 34.5812 23.59 34.6013C24.1141 34.6316 24.4165 33.9059 24.4466 33.3819C24.4466 33.3616 24.487 32.4042 24.5374 30.9126C24.5374 30.8723 24.5374 30.842 24.5374 30.8017C24.618 30.4893 24.618 30.2776 24.5576 30.0861C24.5576 30.0458 24.5576 30.0055 24.5576 29.9651C24.5676 29.6728 24.5777 29.3604 24.5879 29.038C24.5879 28.9876 24.5879 28.9473 24.5879 28.8969C24.608 28.5844 24.608 28.5844 24.608 28.3324C24.608 28.282 24.608 28.2316 24.608 28.1913C24.618 27.8084 24.6281 27.4053 24.6383 26.992C25.2026 26.9012 25.777 26.8005 26.4826 26.6997C26.543 26.6896 26.6137 26.6694 26.6741 26.6493C26.7346 26.6292 26.7849 26.5989 26.8454 26.5686C27.2989 26.2763 27.5811 25.3693 27.047 25.077ZM22.2395 25.2786C22.1992 25.2786 22.1588 25.2786 22.1287 25.2886C21.2316 25.1577 19.9516 25.3794 19.357 25.4197C19.3166 25.4197 19.2764 25.4197 19.2361 25.4299C17.6437 25.5104 16.0311 25.5508 14.4789 25.5608C14.8216 23.8071 15.3154 22.0131 16.0612 20.4107C16.0815 20.3704 16.1016 20.33 16.1116 20.2897C16.7064 18.9492 16.8373 18.667 18.1476 17.4072C18.1879 17.3669 18.5708 16.8528 18.6112 16.8227C20.2439 15.3713 21.3727 15.1396 21.9372 15.1597C22.3 15.1697 22.5318 15.2605 22.6426 15.3311C22.7434 15.8047 22.8039 17.0544 22.8241 18.7981C22.8341 18.8182 22.8341 18.8485 22.8341 18.8686C22.8241 19.0701 22.7635 19.3524 22.8341 19.4834C22.8341 19.5035 22.8341 19.5338 22.8341 19.5539C22.8341 19.9369 22.8341 20.33 22.8341 20.7432C22.8341 20.7835 22.8442 20.8239 22.8442 20.8642C22.7635 21.8216 22.7635 22.5271 22.8039 23.5955C22.8039 23.6157 22.8039 23.6358 22.8039 23.6559C22.8039 23.8676 22.7938 24.0893 22.7938 24.3111C22.7938 24.3513 22.7938 24.4017 22.7938 24.4521C22.7938 24.7243 22.7938 24.9863 22.7837 25.2585C22.6224 25.2484 22.4411 25.2585 22.2395 25.2786Z" fill="black"/>
<path d="M39.3429 34.1382C39.1715 32.6869 39.4335 30.1169 39.3126 26.1258C39.3126 26.0754 39.3126 26.035 39.3126 25.9846C39.3126 25.9343 39.3126 25.8939 39.3126 25.8435C39.2925 24.0092 39.2219 22.4269 39.1715 21.3989C39.1715 21.3485 39.1614 21.0763 39.1614 21.0259C39.1412 20.4415 39.111 20.2297 38.6373 19.9778C38.5768 19.9577 38.4156 19.998 38.3552 19.9878C38.2946 19.9778 38.2241 19.9778 38.1637 19.9778C37.6395 20.0181 37.5185 20.3104 37.3573 20.9151C37.3069 21.1066 37.3069 21.4493 37.3271 21.7416C37.3372 21.802 37.3372 21.8625 37.3472 21.923C37.3372 22.3966 37.3372 22.82 37.3775 23.2936C37.3775 23.3339 37.3775 23.3743 37.3775 23.4146C37.3876 23.8177 37.3976 24.2411 37.3976 24.6844C37.3976 24.7248 37.3976 24.7651 37.3976 24.8054C37.3876 25.1178 37.3675 25.4101 37.3573 25.7024C37.1961 25.7024 37.0248 25.7024 36.8534 25.7125C36.7829 25.7125 36.7123 25.7225 36.6418 25.7225C36.4704 25.8032 36.5208 25.7225 36.1983 25.7528C36.158 25.7528 36.1277 25.763 36.0875 25.763C36.0471 25.763 36.0068 25.773 35.9765 25.773C35.9362 25.773 35.896 25.7831 35.8657 25.7831C35.6339 25.8032 35.6339 25.8032 35.523 25.8134C35.4827 25.8134 35.4425 25.8234 35.4021 25.8234C35.3618 25.8234 35.3215 25.8335 35.2811 25.8335C35.2408 25.8335 35.2006 25.8435 35.1602 25.8435C34.7772 25.8032 34.3338 25.8435 33.6283 26.0451C33.5879 26.0451 33.5476 26.0552 33.5073 26.0552C32.5398 26.1963 31.6327 26.3474 30.9575 26.4684C31.038 25.8636 30.9776 25.1985 30.9876 24.372C30.9876 24.3015 30.9876 24.2309 30.9876 24.1604C30.9675 23.6867 31.0179 21.9935 31.0481 21.5601C31.0481 21.5198 31.0481 21.4794 31.0581 21.4392C31.0784 18.6575 30.8365 16.289 30.8969 14.2128C30.9071 13.8802 30.7861 13.5577 30.5241 13.4065C30.4737 13.3763 30.4131 13.3461 30.3627 13.3259C29.7379 13.2654 29.2945 13.1445 29.0425 14.1221C29.0223 14.1826 29.0325 14.2531 29.0325 14.3136C29.0929 15.7851 29.113 17.7807 29.113 19.7762C29.113 19.8266 29.113 19.8669 29.113 19.9173C29.0526 20.7336 29.0526 21.3686 29.103 22.2959C29.103 22.3362 29.103 22.3866 29.103 22.4269C28.9618 25.2993 29.0325 27.567 29.0325 27.6174C29.0223 27.9097 29.1231 28.2423 29.3449 28.4236C29.5161 28.5647 29.7681 28.585 29.9899 28.585C30.0503 28.585 30.4031 28.5244 30.4737 28.5043C31.2799 28.2825 32.0157 28.2019 33.0839 28.0407C33.1343 28.0407 33.1748 28.0307 33.2252 28.0307C34.0716 27.8089 34.7772 27.8089 35.4626 27.7282C35.4927 27.7282 35.513 27.7182 35.5331 27.7182C36.0169 27.6678 36.4804 27.6375 36.8937 27.6174C36.9341 27.6174 36.9743 27.6174 37.0046 27.6174C37.1457 27.5973 37.2565 27.5871 37.3675 27.577C37.3876 27.8996 37.4179 28.212 37.4681 28.5244C37.4783 28.5647 37.4581 28.6151 37.448 28.6655C37.4581 29.9657 37.5589 31.1147 37.4681 32.2435C37.4681 32.2838 37.4681 32.324 37.4681 32.3644C37.5387 32.5861 37.4681 32.6063 37.4681 32.8078C37.4681 32.8784 37.4681 32.9489 37.4681 33.0196C37.4681 33.0901 37.4681 33.1505 37.4681 33.2211C37.4681 33.4731 37.5387 33.6444 37.4681 33.7654C37.4681 33.8157 37.4681 33.8762 37.4681 33.9266C37.4681 33.977 37.4681 34.0274 37.4681 34.0778C37.3271 34.9243 37.7706 35.64 38.4056 35.7004C38.466 35.7105 38.5265 35.7205 38.5869 35.7205C38.8792 35.7004 39.0506 35.5896 39.1614 35.4182C39.2016 35.378 39.2421 35.3275 39.2823 35.2771C39.373 35.1058 39.373 34.3297 39.3429 34.1382Z" fill="black"/>
<path d="M40.8552 34.2589H40.4722V34.0069H41.5204V34.2589H41.1375V35.3474H40.8552V34.2589Z" fill="#1A1818"/>
<path d="M42.7596 35.3474V34.5411L42.4069 35.2062H42.286L41.9331 34.5612V35.3474H41.6711V34.0069H41.903L42.3565 34.8334L42.7999 34.0069H43.0318V35.3474H42.7596Z" fill="#1A1818"/>
</g>
</g>
</g>
<defs>
<clipPath id="clip0_1_218">
<rect width="50" height="50" fill="white" transform="translate(0.974213 0.71701)"/>
</clipPath>
<clipPath id="clip1_1_218">
<rect width="50" height="50" fill="white" transform="translate(0.974213 0.71701)"/>
</clipPath>
<clipPath id="clip2_1_218">
<rect width="50" height="50" fill="white" transform="translate(0.974213 0.71701)"/>
</clipPath>
</defs>
</svg>
